<svg xmlns="http://www.w3.org/2000/svg" viewBox="0 0 474.26 74.66"><defs><style>.cls-1{fill:#515050;}.cls-2{fill:#37a2c9;}.cls-3{fill:#45c1c2;}</style></defs><title>Asset 1</title><g id="Layer_2" data-name="Layer 2"><g id="Layer_1-2" data-name="Layer 1"><path class="cls-1" d="M133.24,13.23c0-.29,1.54-.63,3.6-.63h15c8.15,0,15.33,7.46,15.33,15.56a15.65,15.65,0,0,1-15.33,15.21H140.71V60.93c0,.85-7.47.85-7.47,0ZM140.71,20v16.7h11.17c4.5,0,7.92-4.9,7.92-8.49S156.38,20,151.88,20Z"/><path class="cls-1" d="M170.69,40.24a16.68,16.68,0,0,1,16.7-16.7h1.31a16.69,16.69,0,0,1,16.7,16.7v4.62a16.68,16.68,0,0,1-16.7,16.69h-1.31a16.68,16.68,0,0,1-16.7-16.69Zm27.24,0A9.23,9.23,0,0,0,188.7,31h-1.31a9.24,9.24,0,0,0-9.24,9.23v4.62a9.24,9.24,0,0,0,9.24,9.23h1.31a9.23,9.23,0,0,0,9.23-9.23Z"/><path class="cls-1" d="M232.81,36l-6.55,24.79c-.18.57-2.51.85-4.56.79-1.83,0-3.77-.28-3.94-.79L208.19,24.4c0-1.14,7.41-1.14,7.41,0L222,48.67l6.44-24.27c0-.63,2.28-.92,4.33-.86s4.39.23,4.39.86l6.38,24.27L250,24.4c0-1.14,7.41-1.14,7.41,0l-9.58,36.36c-.11.51-2,.79-3.93.79s-4.39-.22-4.56-.79Z"/><path class="cls-1" d="M276.92,61.55a16.83,16.83,0,0,1-16.7-16.69V40.24a16.69,16.69,0,0,1,16.7-16.7h.29a16.69,16.69,0,0,1,16.7,16.7v1.82c0,1.88-.4,3.94-1.54,3.94H267.75a9.4,9.4,0,0,0,9.17,8.09h1.43a9.47,9.47,0,0,0,7.92-4.56c1-1.77,7.47,1.94,6.44,3.76a16.83,16.83,0,0,1-14.42,8.26Zm0-30.54a9.24,9.24,0,0,0-9.17,8.2h18.63a9.24,9.24,0,0,0-9.17-8.2Z"/><path class="cls-1" d="M299.26,26.56A33.68,33.68,0,0,1,318,23.88c1.88.46-.29,7.53-1.6,7.3a7.87,7.87,0,0,0-1.71-.17h-1.31a19.37,19.37,0,0,0-6.61,1.54V60.7c0,1.14-7.47,1.14-7.47,0Z"/><path class="cls-2" d="M323,26.51a35.52,35.52,0,0,1,15.38-3,12.94,12.94,0,0,1,8,2.45,34.69,34.69,0,0,1,14.08-2.45c9.18,0,14,7.47,14,16.7V60.7c0,1.14-7.47,1.14-7.47,0V40.24c0-5.13-1.48-9.23-6.55-9.23H359a18.37,18.37,0,0,0-6.61,1.54V60.7c0,1.14-7.46,1.14-7.46,0V40.24c0-5.13-1.49-9.23-6.62-9.23H337a18.37,18.37,0,0,0-6.61,1.54V60.7c0,1.14-7.46,1.14-7.46,0Z"/><path class="cls-2" d="M404.47,60.19a17.2,17.2,0,0,1-6.61,1.36h-1.37a16.78,16.78,0,0,1-16.81-16.69V40.24a16.75,16.75,0,0,1,16.81-16.7,36.88,36.88,0,0,1,15.51,3V60.7c0,1.14-7.53,1.14-7.53,0Zm0-27.64A19.72,19.72,0,0,0,397.86,31h-1.37a9.28,9.28,0,0,0-9.29,9.23v4.62a9.28,9.28,0,0,0,9.29,9.23h1.37a9.24,9.24,0,0,0,6.61-2.79Z"/><path class="cls-2" d="M422.26,30.44h-4.91c-1.14,0-1.14-6.9,0-6.9h4.91V13.4c0-1.09,7.46-1.09,7.46,0V23.54h6.95c1.14,0,1.14,6.9,0,6.9h-6.95V51.3c0,3,2.39,2.79,5.42,2.79h1.53c1.14,0,1.14,7.46,0,7.46h-1.53c-8.27,0-12.88-1.31-12.88-9.74Z"/><path class="cls-2" d="M457.28,61.55a16.82,16.82,0,0,1-16.7-16.69V40.24a16.68,16.68,0,0,1,16.7-16.7h.28a16.69,16.69,0,0,1,16.7,16.7v1.82c0,1.88-.4,3.94-1.54,3.94H448.1a9.42,9.42,0,0,0,9.18,8.09h1.42a9.45,9.45,0,0,0,7.92-4.56c1-1.77,7.47,1.94,6.44,3.76a16.8,16.8,0,0,1-14.41,8.26Zm0-30.54a9.25,9.25,0,0,0-9.18,8.2h18.64a9.25,9.25,0,0,0-9.18-8.2Z"/><path class="cls-2" d="M46.14,71.11,34.66,20.9a.94.94,0,0,1,.27-.88L55.68,1a.91.91,0,0,1,1.5.47l5,22.08a.92.92,0,0,0,1.5.48L90.07.24a.91.91,0,0,1,1.5.46L97.5,25.11a.89.89,0,0,1-.27.89L47.65,71.58a.92.92,0,0,1-1.51-.47"/><path class="cls-3" d="M0,49.79,5.37,72.37a1.4,1.4,0,0,0,2.31.72L36.14,47.42c-2.8-1.73-5.74-3.61-8.93-5.6A19.11,19.11,0,0,0,12.4,39.09a9.4,9.4,0,0,0-4.18,2.26L.46,48.43A1.38,1.38,0,0,0,0,49.79"/><path class="cls-2" d="M98.41,60.81a9.23,9.23,0,0,0-9.23-9.24H87.87a9.23,9.23,0,0,0-9.23,9.24v4.61a9.23,9.23,0,0,0,9.23,9.24h1.31a9.23,9.23,0,0,0,9.23-9.24Z"/></g></g></svg>